<svg xmlns="http://www.w3.org/2000/svg" viewBox="0 0 560 400" width="560" height="400" role="img"><text x="0" y="21" font-family="system-ui,sans-serif" font-size="12" fill="#1a2b32">ies-common.ttl — A Foundry field holds it</text><rect x="330" y="10" width="170" height="15" rx="2" fill="#00897b"/><text x="507" y="22" font-family="system-ui,sans-serif" font-size="12" font-weight="600" fill="#5c6670">1796</text><text x="0" y="47" font-family="system-ui,sans-serif" font-size="12" fill="#1a2b32">ies-common.ttl — A Foundry field holds a weaker version</text><rect x="330" y="36" width="72" height="15" rx="2" fill="#8c959a"/><text x="409" y="48" font-family="system-ui,sans-serif" font-size="12" font-weight="600" fill="#5c6670">764</text><text x="0" y="73" font-family="system-ui,sans-serif" font-size="12" fill="#1a2b32">ies-common.ttl — No Foundry field can hold it</text><rect x="330" y="62" width="19" height="15" rx="2" fill="#b45309"/><text x="356" y="74" font-family="system-ui,sans-serif" font-size="12" font-weight="600" fill="#5c6670">202</text><text x="0" y="99" font-family="system-ui,sans-serif" font-size="12" fill="#1a2b32">ies4.ttl — A Foundry field holds it</text><rect x="330" y="88" width="169" height="15" rx="2" fill="#00897b"/><text x="506" y="100" font-family="system-ui,sans-serif" font-size="12" font-weight="600" fill="#5c6670">1789</text><text x="0" y="125" font-family="system-ui,sans-serif" font-size="12" fill="#1a2b32">ies4.ttl — A Foundry field holds a weaker version</text><rect x="330" y="114" width="71" height="15" rx="2" fill="#8c959a"/><text x="408" y="126" font-family="system-ui,sans-serif" font-size="12" font-weight="600" fill="#5c6670">760</text><text x="0" y="151" font-family="system-ui,sans-serif" font-size="12" fill="#1a2b32">ies4.ttl — No Foundry field can hold it</text><rect x="330" y="140" width="18" height="15" rx="2" fill="#b45309"/><text x="355" y="152" font-family="system-ui,sans-serif" font-size="12" font-weight="600" fill="#5c6670">200</text><text x="0" y="177" font-family="system-ui,sans-serif" font-size="12" fill="#1a2b32">ies-core.ttl — A Foundry field holds it</text><rect x="330" y="166" width="35" height="15" rx="2" fill="#00897b"/><text x="372" y="178" font-family="system-ui,sans-serif" font-size="12" font-weight="600" fill="#5c6670">379</text><text x="0" y="203" font-family="system-ui,sans-serif" font-size="12" fill="#1a2b32">ies-core.ttl — A Foundry field holds a weaker version</text><rect x="330" y="192" width="16" height="15" rx="2" fill="#8c959a"/><text x="353" y="204" font-family="system-ui,sans-serif" font-size="12" font-weight="600" fill="#5c6670">178</text><text x="0" y="229" font-family="system-ui,sans-serif" font-size="12" fill="#1a2b32">ies-core.ttl — No Foundry field can hold it</text><rect x="330" y="218" width="3" height="15" rx="2" fill="#b45309"/><text x="340" y="230" font-family="system-ui,sans-serif" font-size="12" font-weight="600" fill="#5c6670">36</text><text x="0" y="255" font-family="system-ui,sans-serif" font-size="12" fill="#1a2b32">boro-building-handcrafted.ttl — A Foundry field holds it</text><rect x="330" y="244" width="18" height="15" rx="2" fill="#00897b"/><text x="355" y="256" font-family="system-ui,sans-serif" font-size="12" font-weight="600" fill="#5c6670">198</text><text x="0" y="281" font-family="system-ui,sans-serif" font-size="12" fill="#1a2b32">boro-building-handcrafted.ttl — A Foundry field holds a weaker version</text><rect x="330" y="270" width="6" height="15" rx="2" fill="#8c959a"/><text x="343" y="282" font-family="system-ui,sans-serif" font-size="12" font-weight="600" fill="#5c6670">66</text><text x="0" y="307" font-family="system-ui,sans-serif" font-size="12" fill="#1a2b32">boro-building-handcrafted.ttl — No Foundry field can hold it</text><rect x="330" y="296" width="2" height="15" rx="2" fill="#b45309"/><text x="339" y="308" font-family="system-ui,sans-serif" font-size="12" font-weight="600" fill="#5c6670">18</text><text x="0" y="333" font-family="system-ui,sans-serif" font-size="12" fill="#1a2b32">pizza-reference.owl — A Foundry field holds it</text><rect x="330" y="322" width="26" height="15" rx="2" fill="#00897b"/><text x="363" y="334" font-family="system-ui,sans-serif" font-size="12" font-weight="600" fill="#5c6670">284</text><text x="0" y="359" font-family="system-ui,sans-serif" font-size="12" fill="#1a2b32">pizza-reference.owl — A Foundry field holds a weaker version</text><rect x="330" y="348" width="25" height="15" rx="2" fill="#8c959a"/><text x="362" y="360" font-family="system-ui,sans-serif" font-size="12" font-weight="600" fill="#5c6670">270</text><text x="0" y="385" font-family="system-ui,sans-serif" font-size="12" fill="#1a2b32">pizza-reference.owl — No Foundry field can hold it</text><rect x="330" y="374" width="117" height="15" rx="2" fill="#b45309"/><text x="454" y="386" font-family="system-ui,sans-serif" font-size="12" font-weight="600" fill="#5c6670">1241</text></svg>
